<?xml version="1.0" ?><svg id="Layer_1" style="enable-background:new 0 0 32 32;" version="1.1" viewBox="0 0 32 32" xml:space="preserve" xmlns="http://www.w3.org/2000/svg" xmlns:xlink="http://www.w3.org/1999/xlink"><g><path d="M29.96,27.59l-3.34-12.27c-0.12-0.41-0.46-0.72-0.88-0.8l-0.99-0.18c-0.17,0.57-0.39,1.14-0.66,1.7   c-0.07,0.13-0.13,0.27-0.2,0.4c-2.25,4.37-6.53,6.62-6.71,6.71c-0.37,0.19-0.77,0.29-1.19,0.29c-0.41,0-0.83-0.1-1.19-0.29   c-0.18-0.1-4.46-2.34-6.71-6.71c-0.07-0.13-0.14-0.27-0.21-0.4c-0.27-0.56-0.48-1.13-0.65-1.7l-0.99,0.18   c-0.43,0.07-0.77,0.38-0.88,0.8L2.04,27.59c-0.11,0.41,0.01,0.83,0.33,1.11c0.21,0.18,0.46,0.29,0.74,0.29   c0.13,0,0.27-0.03,0.41-0.08l4.58-1.8l0.3-1.9l0.1-0.63l0.38-2.37c0.1-0.6,0.66-1.02,1.27-0.92c0.6,0.1,1.01,0.66,0.91,1.27   l-0.34,2.16l-0.13,0.83l-0.22,1.43L14.89,29v-2.42V25.6c0-0.61,0.49-1.11,1.11-1.11s1.11,0.49,1.11,1.11v0.98V29l4.54-2.03   l-0.36-2.26h0.01l-0.35-2.16c-0.1-0.6,0.32-1.17,0.92-1.27c0.6-0.1,1.17,0.32,1.27,0.92l0.38,2.37l0.1,0.64l0.3,1.89l4.59,1.8   c0.13,0.05,0.27,0.08,0.41,0.08c0.27,0,0.53-0.1,0.74-0.29C29.95,28.42,30.07,27.99,29.96,27.59z"/><path d="M9.23,15.41c0.13,0.26,0.26,0.52,0.4,0.76c2.09,3.69,5.7,5.6,5.87,5.68c0.15,0.08,0.33,0.13,0.51,0.13   c0.17,0,0.35-0.04,0.51-0.13c0.16-0.08,3.77-1.99,5.87-5.68c0.13-0.24,0.27-0.5,0.39-0.76c0.21-0.43,0.38-0.88,0.52-1.33   c0.35-1.07,0.53-2.17,0.53-3.28C23.82,6.51,20.31,3,16,3c-4.31,0-7.83,3.51-7.83,7.81c0,1.11,0.18,2.21,0.53,3.28   C8.85,14.54,9.03,14.98,9.23,15.41z M16,7.41c1.88,0,3.4,1.53,3.4,3.4s-1.53,3.4-3.4,3.4s-3.41-1.53-3.41-3.4S14.12,7.41,16,7.41z"/></g></svg>